<svg xmlns="http://www.w3.org/2000/svg" viewBox="0 0 60 60"><path fill="#d9eafd" d="M58.25,33.89l-2.62-3.68a4.729,4.729,0,0,1-.87-2.72,4.638,4.638,0,0,1,.49-2.08A7.106,7.106,0,0,0,56,22.24V18.07a4.03,4.03,0,0,0-.63-2.16L49.84,7.19a4.144,4.144,0,0,0-2.36-1.72L31.04,1.13a4.035,4.035,0,0,0-2.07.01L20.45,3.47a3.953,3.953,0,0,0-1.29.62,4.041,4.041,0,0,0-.99,1.03L13,12.89,5.95,16.42a4.034,4.034,0,0,0-1.54,1.36L1.67,21.9A4,4,0,0,0,1,24.13v9.82a4.071,4.071,0,0,0,.46,1.87l9.42,18.02a3.811,3.811,0,0,0,.89,1.13,3.933,3.933,0,0,0,2.65,1.02h3.46A5.084,5.084,0,0,1,21.5,57.5,5.116,5.116,0,0,0,25.12,59H40.34a4,4,0,0,0,2.83-1.17l14.66-14.7A4,4,0,0,0,59,40.3V36.23A4.024,4.024,0,0,0,58.25,33.89Z"/><path fill="#afd0e8" d="M38,51.8V59H25.12a5.116,5.116,0,0,1-3.62-1.5,5.084,5.084,0,0,0-3.62-1.51H14.42a3.933,3.933,0,0,1-2.65-1.02l6.89-9.18a5.974,5.974,0,0,1,3.53-2.26l7.26-1.55,8,8.44A2.022,2.022,0,0,1,38,51.8Z"/><path fill="#c5def4" d="M29.45,41.98l-7.26,1.55a5.974,5.974,0,0,0-3.53,2.26l-6.89,9.18a3.811,3.811,0,0,1-.89-1.13L1.46,35.82A4.071,4.071,0,0,1,1,33.95V28l11.62-2.68a6.125,6.125,0,0,1,2.76-.01l6.08,1.35L20.3,30.91a2,2,0,0,0,.47,1.91Z"/><path fill="#afd0e8" d="M22.66,22.26l-1.2,4.4-6.08-1.35a6.125,6.125,0,0,0-2.76.01L1,28V24.13a4,4,0,0,1,.67-2.23l2.74-4.12a4.034,4.034,0,0,1,1.54-1.36L13,12.89l8.99,7.29A2.006,2.006,0,0,1,22.66,22.26Z"/><path fill="#c5def4" d="M48.89,6.17l-1.6,7.47a1.99,1.99,0,0,1-1.67,1.56l-5.2.74-6.47.92a1.992,1.992,0,0,1-1.65-.51L19.16,4.09a3.953,3.953,0,0,1,1.29-.62l8.52-2.33a4.035,4.035,0,0,1,2.07-.01L47.48,5.47A3.889,3.889,0,0,1,48.89,6.17Z"/><path fill="#afd0e8" d="M59,36.23V40.3a4,4,0,0,1-1.17,2.83l-4.54,4.55-1.95-9.09a2.952,2.952,0,0,0-1.86-2.16l-4.83-1.81a2.964,2.964,0,0,1-1.9-2.37L40.42,15.94l5.2-.74a1.99,1.99,0,0,0,1.67-1.56l1.6-7.47a3.861,3.861,0,0,1,.95,1.02l5.53,8.72A4.03,4.03,0,0,1,56,18.07v4.17a7.106,7.106,0,0,1-.75,3.17,4.638,4.638,0,0,0-.49,2.08,4.729,4.729,0,0,0,.87,2.72l2.62,3.68A4.024,4.024,0,0,1,59,36.23Z"/><path fill="#262626" d="M9.991,54.308a4.99,4.99,0,0,0,4.434,2.685h3.452A4.089,4.089,0,0,1,20.791,58.2,6.084,6.084,0,0,0,25.125,60H40.341a4.96,4.96,0,0,0,3.539-1.469L58.536,43.84A4.983,4.983,0,0,0,60,40.3V36.227a4.987,4.987,0,0,0-.932-2.913l-2.626-3.686a3.664,3.664,0,0,1-.3-3.767A8.144,8.144,0,0,0,57,22.239V18.065a5.025,5.025,0,0,0-.781-2.69L50.684,6.658A4.981,4.981,0,0,0,47.739,4.5L40.255,2.53a1,1,0,1,0-.51,1.933l7.484,1.975a3.012,3.012,0,0,1,.538.2l-1.456,6.8a.991.991,0,0,1-.832.773L33.8,15.871a.991.991,0,0,1-.82-.252L20.931,4.374l8.3-2.268A2.992,2.992,0,0,1,30.781,2.1l4.964,1.309a1,1,0,1,0,.51-1.933L31.291.165A4.985,4.985,0,0,0,28.7.177L20.184,2.506a5.008,5.008,0,0,0-2.848,2.056l-5.022,7.551L5.5,15.527a5.018,5.018,0,0,0-1.925,1.7L.839,21.348A5,5,0,0,0,0,24.125v9.83a5.042,5.042,0,0,0,.57,2.323ZM2.344,35.353A3.035,3.035,0,0,1,2,33.955V28.8l10.845-2.5a5.1,5.1,0,0,1,2.318-.008l5.053,1.122-.885,3.244a3.018,3.018,0,0,0,.717,2.852l2.613,2.758c.007.008.008.019.016.027s.021.013.03.022l4.8,5.063-5.521,1.178a6.952,6.952,0,0,0-4.122,2.637L11.742,53.34ZM22.207,56.79a6.072,6.072,0,0,0-4.33-1.8H14.425a3.007,3.007,0,0,1-1.226-.262l6.262-8.342A4.955,4.955,0,0,1,22.4,44.508l6.715-1.434,7.613,8.035A1,1,0,0,1,37,51.8V58H25.125A4.1,4.1,0,0,1,22.207,56.79Zm23.557-40.6a3,3,0,0,0,2.5-2.34l1.163-5.434,5.1,8.032A3.006,3.006,0,0,1,55,18.065v4.174a6.15,6.15,0,0,1-.643,2.729,5.66,5.66,0,0,0,.456,5.821l2.626,3.687A2.986,2.986,0,0,1,58,36.227V40.3a2.989,2.989,0,0,1-.88,2.127l-3.238,3.246-1.564-7.29a3.93,3.93,0,0,0-2.487-2.89L45,33.683a1.962,1.962,0,0,1-1.259-1.575L41.552,16.789ZM19,5.669c.049-.073.11-.137.165-.2L31.619,17.083a2.969,2.969,0,0,0,2.027.8,3.039,3.039,0,0,0,.445-.033l5.48-.779L41.76,32.388a3.958,3.958,0,0,0,2.54,3.169l4.834,1.811A1.941,1.941,0,0,1,50.362,38.8L52.2,47.36l-3.106,3.114-6.346-7.138a1,1,0,1,0-1.494,1.328l6.426,7.228-5.215,5.227A2.974,2.974,0,0,1,40.341,58H39V51.8a2.989,2.989,0,0,0-.822-2.063L24.856,35.673l8.813-7.93a1,1,0,0,0-1.338-1.486l-8.85,7.964L21.5,32.129a1.008,1.008,0,0,1-.238-.951l2.361-8.657a3,3,0,0,0-1-3.119l-8.281-6.718ZM2.505,22.456l2.739-4.119A3.011,3.011,0,0,1,6.4,17.315l6.473-3.244,8.485,6.885A1,1,0,0,1,21.692,22l-.949,3.482L15.6,24.335a7.094,7.094,0,0,0-3.208.01L2,26.743V24.125A3,3,0,0,1,2.505,22.456Z"/></svg>